<svg xmlns="http://www.w3.org/2000/svg" viewBox="0 0 746.8 1046.95"><defs><style>.cls-1{fill:#fff;}.cls-2{fill:#ccc;opacity:0.8;}.cls-3{fill:#0babd1;}.cls-4{fill:#da2128;}.cls-5{fill:#ea6a13;}</style></defs><g id="Layer_2" data-name="Layer 2"><g id="Layer_1-2" data-name="Layer 1"><path class="cls-1" d="M539.86,344.43a2.82,2.82,0,0,0,5.57.89,2.82,2.82,0,1,0-5.57-.89Z"/><path class="cls-1" d="M628.08,351.28a2.74,2.74,0,0,0,3.3-2.27,2.85,2.85,0,0,0-2.31-3.3,2.93,2.93,0,0,0-3.28,2.39A2.83,2.83,0,0,0,628.08,351.28Z"/><path class="cls-1" d="M530.89,346a2.88,2.88,0,0,0,3.26-2.41,2.77,2.77,0,0,0-2.28-3.17,2.85,2.85,0,0,0-3.34,2.27A3,3,0,0,0,530.89,346Z"/><path class="cls-1" d="M537.72,338.31A2.86,2.86,0,0,0,541,336a2.94,2.94,0,0,0-2.39-3.28,2.85,2.85,0,0,0-3.22,2.44A2.75,2.75,0,0,0,537.72,338.31Z"/><path class="cls-1" d="M543.15,110.12l-53,355.44h147.5l73.72-320.92ZM593.22,264q3.85-26.86,7.72-53.72a12.41,12.41,0,0,1,.34-2,3.59,3.59,0,0,1,7,1,8.07,8.07,0,0,1-.14,1.38q-3.93,27.45-7.88,54.9c-.08.51-8.51,58.82-8.63,59.44l-7-1C584.72,323.17,593.12,264.66,593.22,264Zm-69.31,75.89a22,22,0,0,1,23.67-14.41q37.47,5.22,74.91,10.76c11.83,1.77,20.17,13.14,18.7,25-.37,3-.82,6-1.28,9a5.65,5.65,0,0,1-6.09,5,17.11,17.11,0,0,1-2-.23l-52.2-7.5q-26.19-3.75-52.37-7.51c-2-.29-3.94-.81-5-2.7a5.53,5.53,0,0,1-1-3.2C522,349.29,522.38,344.37,523.91,339.85Zm-9.61,36.42a8.29,8.29,0,0,1,1.86.09l122.21,16.08a10.47,10.47,0,0,1,1.38.24,2.68,2.68,0,0,1,2.13,2.73,2.74,2.74,0,0,1-2.34,2.71,7.45,7.45,0,0,1-2.16,0c-7.12-.92-14.24-1.82-21.35-2.82a9.68,9.68,0,0,0-7.09,1.61c-6,4.08-12.11,8.09-18.17,12.13l-2.67,1.75-9.22-10.47c-2.41-2.73-4.84-5.44-7.2-8.21a9.78,9.78,0,0,0-6.54-3.51q-24.76-3.19-49.51-6.5a9.49,9.49,0,0,1-2-.38,2.66,2.66,0,0,1-1.89-2.89A2.79,2.79,0,0,1,514.3,376.27Zm-5.79,27.37a5.69,5.69,0,0,1,6-6.68c2.65.14,5.29.4,7.94.6q21.54,1.69,43.09,3.37a5.09,5.09,0,0,1,3.54,1.65c3.12,3.28,6.31,6.49,9.47,9.72.29.29.61.54.92.81-.06.1-.12.2-.19.3-.44,0-.88,0-1.33,0l-63.46-5C511.13,408.15,509,406.36,508.51,403.64ZM631.42,438a11.15,11.15,0,0,1-8.81,9.57,5.22,5.22,0,0,0-.71.28H521.39a28.27,28.27,0,0,1-3-1.09,11.1,11.1,0,0,1-6.6-10c-.1-2-.06-4.06,0-6.08a5.57,5.57,0,0,1,5.66-5.63q31.65,0,63.32,0a3.15,3.15,0,0,1,1.65.63,5.87,5.87,0,0,0,7.11,0,3.76,3.76,0,0,1,2-.65q17-.06,34,0c3.8,0,6.13,2.32,6.14,6.1A52.08,52.08,0,0,1,631.42,438Zm4.78-21.42a10.85,10.85,0,0,1-1.4.08H598.54c0-.13-.09-.25-.13-.38,4-3.47,8-7,12-10.39a3.63,3.63,0,0,1,2.16-.65q11.54-.06,23.07,0a5.69,5.69,0,0,1,.58,11.35Z"/><path class="cls-1" d="M393.15,228.17a9.94,9.94,0,1,0-9.94,9.94A9.94,9.94,0,0,0,393.15,228.17Z"/><path class="cls-1" d="M292.4,0l24.86,465.56H471.37l63-422.36ZM395.78,338.72a73.19,73.19,0,1,1,63.53-109.43L386,265.54l73.28,36.25A73.22,73.22,0,0,1,395.78,338.72Z"/><path class="cls-1" d="M195.93,409.93l-9,.7-.7-8.95a1.12,1.12,0,0,0-1.21-1l-4.76.37a1.13,1.13,0,0,0-1,1.21l.71,8.95-9,.71a1.12,1.12,0,0,0-1,1.2l.37,4.76a1.12,1.12,0,0,0,1.21,1l8.95-.7.71,8.95a1.12,1.12,0,0,0,1.2,1l4.76-.37a1.12,1.12,0,0,0,1-1.21l-.7-8.95,8.95-.7a1.12,1.12,0,0,0,1-1.21l-.37-4.76A1.12,1.12,0,0,0,195.93,409.93Z"/><path class="cls-1" d="M189.44,426.08a13.14,13.14,0,0,0,6.74-7.88l-7.31.58Z"/><path class="cls-1" d="M207.68,378.4a7.55,7.55,0,1,0,8.11,6.93A7.55,7.55,0,0,0,207.68,378.4Z"/><path class="cls-1" d="M171.94,420.11a13.11,13.11,0,0,0,8.05,6.77l-.58-7.36Z"/><path class="cls-1" d="M176.4,385.24a12.7,12.7,0,1,0-11.67,13.66A12.71,12.71,0,0,0,176.4,385.24Z"/><path class="cls-1" d="M171.13,410.65l7.54-.59-.59-7.55A13.12,13.12,0,0,0,171.13,410.65Z"/><path class="cls-1" d="M195.5,408.74a13.08,13.08,0,0,0-8-6.91l.59,7.49Z"/><path class="cls-1" d="M265.22,374a5.43,5.43,0,1,0,5.83,5A5.42,5.42,0,0,0,265.22,374Z"/><path class="cls-1" d="M254,387.13a5.43,5.43,0,1,0,5.83,5A5.44,5.44,0,0,0,254,387.13Z"/><path class="cls-1" d="M273.64,70,73.39,125.35l61.05,340.21H294.76ZM275,449.56a13,13,0,0,1-9.23-2.85h0l-22.66-18.23c-22.52-5.22-41-3.77-62.47,4.91l-19.54,21.54h0a13.08,13.08,0,0,1-22.74-7.77,12.72,12.72,0,0,1,0-1.38c.39-15.37.39-15.42,1.36-54.69a33.53,33.53,0,0,1,49.63-28.76A41.73,41.73,0,0,0,204,365.2a112.74,112.74,0,0,1-15.21-59c.23-9.89,2.13-19.46,4.27-29.08,2.1-9.46,4.36-19.58,1.9-29.2-2.21-8.65-8.42-15.05-14.95-20.77s-13.47-11.1-19.05-17.9c-11.58-14.09-18.63-32.28-15.75-50.65,2.59-16.52,13.4-31.54,29.11-37.72,1.76-.69,3.81.77,4.27,2.43a3.58,3.58,0,0,1-2.42,4.27c-16.47,6.48-25.54,25-24.65,42,.91,17.4,10.86,33,23.6,44.27,6.28,5.56,13.16,10.58,18.52,17.09a39.71,39.71,0,0,1,9.29,25c.17,9.76-2.43,19.35-4.47,28.82a111.44,111.44,0,0,0-2.7,27.3,105.61,105.61,0,0,0,15.73,52.1s0,.11.07.16a43.33,43.33,0,0,0,12-4.73A33.51,33.51,0,0,1,277,380.31c7.09,38.63,7.1,38.69,9.88,53.81.08.45.14.91.18,1.37A13.08,13.08,0,0,1,275,449.56Z"/><path class="cls-1" d="M257.94,367.8a5.43,5.43,0,1,0-5,5.84A5.41,5.41,0,0,0,257.94,367.8Z"/><circle class="cls-1" cx="233.68" cy="410.58" r="11.31" transform="translate(-238 437.13) rotate(-63.58)"/><path class="cls-1" d="M240.9,375.93a5.43,5.43,0,1,0,5.84,5A5.42,5.42,0,0,0,240.9,375.93Z"/><path class="cls-1" d="M746.8,209.54c-.15.59-2.55,10.18-5.47,21.68-2.11,8.32-4.49,17.63-6.51,25.27-1.94,7.37-3.53,13.19-4.2,15.08a16.82,16.82,0,0,1-3.08,5.42c-4.25,3.87-6.58,11.16-7.18,13.43L715.27,310c-.1.34-.19.69-.28,1l-18.4,70.54c-1,4-1.92,7.35-2.45,9.36-2.33,8.94-3.42,9.59-2.93,14.84s1.17,8,.72,9.74c-.31,1.17-6.82,29.34-11.65,49.46H664.66c5.6-20,14.75-51.39,15.08-52.64.46-1.74,2.39-3.8,5.39-8.15s2.35-5.44,4.68-14.38c1.18-4.5,4.08-15.63,6.75-25.88h0l14.09-54,.27-1c2.54-9.71,4.8-18.4,5.1-19.54.6-2.28,2.12-9.79.3-15.24a16.5,16.5,0,0,1,0-6.23c.34-2,1.79-7.87,3.71-15.28,2.48-9.6,5.72-21.72,8.28-31.22,2.4-8.94,4.2-15.55,4.2-15.55s.83,8.26-2.52,21.74-9.17,35.17-8.09,37.66a3.75,3.75,0,0,0,5.16,1.35c2.16-1.64,7.68-23.4,11.33-36.81C741.9,216.81,746.46,210,746.8,209.54Z"/><path class="cls-1" d="M115.13,464.94c-4.36-16.77-21.28-82.21-25.9-106.41C83.76,329.87,73,242.8,73,242.8a8.7,8.7,0,0,0-10.18-6.92L7.08,246.52A8.73,8.73,0,0,0,.15,256.7S22.1,341,27.54,369.47c3.81,20,10.21,68.9,13.58,95.47H67.35a11.05,11.05,0,0,1-1.66-4.08,11.4,11.4,0,1,1,20.76,4.08ZM59,429c-3.15.6-6.22-1.76-6.91-5.28L23.53,274c-.66-3.51,1.33-6.83,4.46-7.43s6.23,1.75,6.91,5.27L63.49,421.52C64.15,425,62.16,428.37,59,429Zm22.72-4.33c-3.15.59-6.23-1.77-6.91-5.28L46.25,269.68c-.67-3.52,1.33-6.84,4.46-7.45s6.22,1.76,6.89,5.28L86.21,417.18C86.87,420.69,84.88,424,81.75,424.63Z"/><path class="cls-2" d="M277.84,148.71,153.15,180.14a50.63,50.63,0,0,1-1.68-10.52c-.9-17.05,8.17-35.55,24.65-42a3.57,3.57,0,0,0,2.42-4.26c-.46-1.66-2.51-3.11-4.26-2.43-15.72,6.19-26.54,21.2-29.13,37.72a56.4,56.4,0,0,0,1.35,23.2L86.25,197l-10.7-59.62L274.3,82.44Z"/><polygon class="cls-3" points="267.43 123.13 58.38 175.81 73.39 125.35 273.64 70.01 267.43 123.13"/><polyline class="cls-2" points="297.69 99.17 293.14 14.02 532.29 56.72 519.26 144.21"/><polygon class="cls-4" points="510.37 107.51 245.85 53.75 292.39 0 534.32 43.2 510.37 107.51"/><polyline class="cls-2" points="532.16 183.76 541.68 119.95 709.18 154.13 695.65 213.03"/><polygon class="cls-5" points="547.71 161.49 722.99 192.85 711.36 144.44 543.15 110.12 547.71 161.49"/><path class="cls-5" d="M449.24,289.22a15.07,15.07,0,0,0,2.53-18,15.3,15.3,0,0,0-16-7.8c-5.53.89-11.21,4.78-12.77,13l-13.37-6.2a26.59,26.59,0,0,0-3.93-1.79c-1.54-.43-1.73-1.57-1.84-2.74a2.74,2.74,0,0,1,1.61-2.84c1.29-.65,2.6-1.26,3.9-1.89l34.69-16.52,1.17-.54c3.92,11.52,15.83,12.6,22.18,9.07a15.61,15.61,0,0,0,5.19-22.42l7.47-3.68c12.44,25.77,14.55,51.53-.15,77.31Zm23.9-19.74a9.17,9.17,0,1,0,9.19,9.19A9.19,9.19,0,0,0,473.14,269.48Zm11.77-12.6c0-1.3,0-2.6,0-3.9-.05-2.09-1.26-3.46-3.05-3.5s-3.1,1.22-3.15,3.35q-.09,4,0,8.1c.05,2.12,1.3,3.39,3.16,3.35s3-1.41,3.05-3.5C484.94,259.48,484.91,258.18,484.91,256.88Zm-24.82,5.66a3,3,0,1,0-.13,6.09,3,3,0,1,0,.13-6.09Z"/><path class="cls-5" d="M514.89,263.94a102.68,102.68,0,0,1-12.34,50.25c-1.06,2-3.18,2.66-5.16,3.13a9.19,9.19,0,0,1-11.46-8.52,10.81,10.81,0,0,1,1.24-5,89.21,89.21,0,0,0,7.5-21.3A84.15,84.15,0,0,0,496,258.06a82,82,0,0,0-9-30.83c-3.23-6.23.75-12.9,7.48-13.7a9.09,9.09,0,0,1,8.66,4.71,99.24,99.24,0,0,1,9.89,28.07A88.47,88.47,0,0,1,514.89,263.94Z"/><path class="cls-4" d="M447.51,279.15a9.17,9.17,0,0,1-3.41,6.59,1.3,1.3,0,0,1-1.64.21c-4.14-2.06-8.31-4-12.42-6.13a2,2,0,0,1-1-1.48,9.2,9.2,0,0,1,9.61-8.89A9.42,9.42,0,0,1,447.51,279.15Z"/><path class="cls-4" d="M451,241.08c5.12-2.49,10.16-5,15.23-7.38a1.25,1.25,0,0,1,1.16.34,9.13,9.13,0,0,1-6.21,14.53C456,249.09,452.23,246.29,451,241.08Z"/><path class="cls-4" d="M473.18,275.6a3,3,0,1,1-.2,6.09,3,3,0,0,1,.2-6.09Z"/><path class="cls-4" d="M579.1,373.15,640.4,382c2.06.29,3.11,1.27,3.11,2.83a2.78,2.78,0,0,1-3,2.88,13.41,13.41,0,0,1-1.55-.2L517.3,370a12.18,12.18,0,0,1-1.69-.29,2.82,2.82,0,0,1,.8-5.52,12.31,12.31,0,0,1,1.7.2Z"/><path class="cls-3" d="M610.13,248.43l4.57-31.86c.68.34,1.26.57,1.79.9,8.39,5.1,16.77,10.23,25.16,15.32,1.6,1,3,2.06,2.73,4.17s-1.94,2.93-3.83,3.44q-14.13,3.76-28.26,7.58C611.68,248.14,611,248.24,610.13,248.43Z"/><circle class="cls-5" cx="265.65" cy="379.43" r="5.51"/><path class="cls-1" d="M39.37,541v28.89q0,11.05-4.65,17t-13.51,5.93q-8.85,0-13.5-5.93t-4.65-17V522.46q0-11.06,4.65-17t13.5-5.92q8.87,0,13.51,5.92t4.65,17v8.85H27.86v-9.76q0-9-6.31-9t-6.31,9v49.2q0,8.85,6.31,8.85t6.31-8.85V554H22.32V541Z"/><path class="cls-1" d="M71.58,591.7l-2.1-16.53h-15l-2.1,16.53H41.25l12.4-91.1H71.47l12.4,91.1Zm-3.76-28.89L62,516.74l-5.87,46.07Z"/><path class="cls-1" d="M120.84,500.6h16.93v91.1H126.26V526.37l-8.41,65.33H106.34l-9.08-64.42V591.7H86.63V500.6h16.94l9,64.68Z"/><path class="cls-1" d="M172.75,539v13H156v26.68h21v13H143.86V500.6h33.21v13H156V539Z"/><path class="cls-1" d="M184.82,505.48q4.53-5.93,13.39-5.92t13.39,5.92q4.54,5.92,4.54,17v2.87H204.63v-3.78q0-4.68-1.55-6.83a5.87,5.87,0,0,0-9.08,0q-1.55,2.14-1.55,6.83a18.9,18.9,0,0,0,2.61,10,59.22,59.22,0,0,0,7.8,9.77,104.16,104.16,0,0,1,7,8.26,34.55,34.55,0,0,1,4.54,8.66,33,33,0,0,1,1.88,11.58q0,11.05-4.65,17t-13.5,5.93q-8.86,0-13.5-5.93t-4.65-17v-5.6h11.51v6.51q0,8.85,6.31,8.85t6.31-8.85a19,19,0,0,0-2.6-10,59.87,59.87,0,0,0-7.81-9.76,104.1,104.1,0,0,1-7-8.27,34.47,34.47,0,0,1-4.54-8.65,33.11,33.11,0,0,1-1.88-11.59Q180.28,511.41,184.82,505.48Z"/><path class="cls-1" d="M243.37,543.55a13,13,0,0,1-6.36-6.7q-2.06-4.62-2-12v-1.7q0-11.05,4.54-16.78t13.61-5.73h13.95v13H253.34a5.46,5.46,0,0,0-4.6,2.09q-1.61,2.09-1.6,6.76v5.6c0,3.47.6,5.94,1.82,7.42a6.69,6.69,0,0,0,5.48,2.21h5.32V527.54h12.17v10.15h3.21v13h-3.21v29.93c0,2.6.07,4.71.22,6.31a18.11,18.11,0,0,0,1.11,4.75h-12.4a29.4,29.4,0,0,1-1.1-7.15q-3.22,8.19-11.3,8.2a11.23,11.23,0,0,1-10.07-5.34Q235,582.07,235,571.92v-9.24Q235,548,243.37,543.55Zm10.08,36.18q6,0,6.31-7.94V550.71h-4.65q-4.22,0-6.09,2.67c-1.26,1.77-1.88,4.75-1.88,8.91v8.46Q247.14,579.74,253.45,579.73Z"/><path class="cls-1" d="M320.19,541.08v13H304.47V591.7H292.3V500.6h32.21v13h-20v27.47Z"/><path class="cls-1" d="M331.37,505.54q4.75-6,13.73-6t13.72,6q4.77,6,4.76,16.92v47.38q0,10.93-4.76,16.92t-13.72,6q-9,0-13.73-6t-4.76-16.92V522.46Q326.61,511.54,331.37,505.54Zm13.73,74.19q6.3,0,6.31-9v-49.2q0-9-6.31-9t-6.31,9v49.2Q338.79,579.74,345.1,579.73Z"/><path class="cls-1" d="M372.44,505.54q4.76-6,13.72-6t13.73,6q4.75,6,4.76,16.92v47.38q0,10.93-4.76,16.92t-13.73,6q-9,0-13.72-6t-4.76-16.92V522.46Q367.68,511.54,372.44,505.54Zm13.72,74.19q6.31,0,6.31-9v-49.2q0-9-6.31-9t-6.3,9v49.2Q379.86,579.74,386.16,579.73Z"/><path class="cls-1" d="M429,500.6q9.08,0,13.62,5.73t4.54,16.78v46.08q0,11.05-4.54,16.79T429,591.7H409.74V500.6Zm-7.08,78.09h6.86a5.44,5.44,0,0,0,4.59-2.08q1.61-2.08,1.61-6.77V522.46q0-4.68-1.61-6.76a5.45,5.45,0,0,0-4.59-2.09h-6.86Z"/><path class="cls-1" d="M494.42,541.08v13H478.7V591.7H466.53V500.6h32.21v13h-20v27.47Z"/><path class="cls-1" d="M530.73,539v13H514v26.68h21v13H501.84V500.6h33.21v13H514V539Z"/><path class="cls-1" d="M542.79,505.48q4.55-5.93,13.4-5.92t13.39,5.92q4.54,5.92,4.54,17v2.87H562.61v-3.78q0-4.68-1.55-6.83a5.87,5.87,0,0,0-9.08,0q-1.54,2.14-1.55,6.83a19,19,0,0,0,2.6,10,59.89,59.89,0,0,0,7.81,9.77,106.36,106.36,0,0,1,7,8.26,34.88,34.88,0,0,1,4.54,8.66,33.25,33.25,0,0,1,1.88,11.58q0,11.05-4.65,17t-13.5,5.93q-8.87,0-13.51-5.93t-4.65-17v-5.6h11.51v6.51q0,8.85,6.31,8.85t6.31-8.85a18.89,18.89,0,0,0-2.6-10,59.2,59.2,0,0,0-7.8-9.76,106.68,106.68,0,0,1-7-8.27,34.46,34.46,0,0,1-4.53-8.65,33.11,33.11,0,0,1-1.89-11.59Q538.25,511.41,542.79,505.48Z"/><path class="cls-1" d="M612.53,500.6v13H599.8V591.7H587.62V513.61H574.89v-13Z"/><path class="cls-1" d="M627.25,500.6v91.1H615.07V500.6Z"/><path class="cls-1" d="M661,500.6h11.18l-12,91.1H642.08l-12-91.1h12.28l9.3,74.32Z"/><path class="cls-1" d="M699.42,591.7l-2.1-16.53h-15l-2.1,16.53H669.09l12.4-91.1h17.82l12.4,91.1Zm-3.76-28.89-5.87-46.07-5.87,46.07Z"/><path class="cls-1" d="M726.76,500.6v78.09h20v13H714.59V500.6Z"/><path class="cls-1" d="M19.69,624.69a8.61,8.61,0,0,1,0,12.56c-1.82,1.52-4.32,2.27-7.52,2.27H4.91v8.32H3.06V622.42h9.11A11.42,11.42,0,0,1,19.69,624.69Zm-1.31,11.38A6.22,6.22,0,0,0,20.52,631a6.28,6.28,0,0,0-2.14-5.1,9.42,9.42,0,0,0-6.21-1.8H4.91v13.76h7.26Q16.24,637.85,18.38,636.07Z"/><path class="cls-1" d="M48.62,622.42h1.85v23.75H65.1v1.67H48.62Z"/><path class="cls-1" d="M105.57,640.68H90.84l-3.23,7.16h-2L97.3,622.42h1.85l11.69,25.42h-2Zm-.69-1.56L98.2,624.46l-6.64,14.66Z"/><path class="cls-1" d="M141.77,639.09v8.75h-1.86v-8.75l-10.23-16.67h2l9.19,15,9.18-15H152Z"/><path class="cls-3" d="M215.2,629.79a7.79,7.79,0,1,1-7.82,7.8,7.39,7.39,0,0,1,2.33-5.57A7.69,7.69,0,0,1,215.2,629.79Z"/><path class="cls-1" d="M294.59,646.17v1.67H277.06V622.42h17v1.67H278.91v10h13.54v1.64H278.91v10.42Z"/><path class="cls-1" d="M337,640.68H322.29l-3.23,7.16h-2l11.69-25.42h1.86l11.68,25.42h-2Zm-.69-1.56-6.68-14.66L323,639.12Z"/><path class="cls-1" d="M370.46,624.09h-9.14v-1.67h20.14v1.67h-9.15v23.75h-1.85Z"/><path class="cls-5" d="M444.62,629.79a7.8,7.8,0,1,1-7.81,7.8,7.35,7.35,0,0,1,2.33-5.57A7.65,7.65,0,0,1,444.62,629.79Z"/><path class="cls-1" d="M524.13,647.84l-6.07-8.5a18.63,18.63,0,0,1-2.46.18h-7.27v8.32h-1.85V622.42h9.12a11.41,11.41,0,0,1,7.51,2.27,7.79,7.79,0,0,1,2.72,6.3,7.73,7.73,0,0,1-6,8l6.35,8.9Zm-8.53-10a9.41,9.41,0,0,0,6.2-1.8,7.15,7.15,0,0,0,0-10.2,9.41,9.41,0,0,0-6.2-1.8h-7.27v13.8Z"/><path class="cls-1" d="M570.12,646.17v1.67H552.59V622.42h17v1.67H554.44v10H568v1.64H554.44v10.42Z"/><path class="cls-1" d="M613.46,624.69a8.59,8.59,0,0,1,0,12.56c-1.81,1.52-4.32,2.27-7.51,2.27h-7.26v8.32h-1.85V622.42H606A11.39,11.39,0,0,1,613.46,624.69Zm-1.3,11.38A6.25,6.25,0,0,0,614.3,631a6.32,6.32,0,0,0-2.14-5.1,9.42,9.42,0,0,0-6.21-1.8h-7.26v13.76H606Q610,637.85,612.16,636.07Z"/><path class="cls-1" d="M659.93,646.17v1.67H642.4V622.42h17v1.67H644.25v10h13.54v1.64H644.25v10.42Z"/><path class="cls-1" d="M702.36,640.68H687.63l-3.23,7.16h-2l11.69-25.42h1.85l11.69,25.42h-2Zm-.69-1.56L695,624.46l-6.64,14.66Z"/><path class="cls-1" d="M735.8,624.09h-9.15v-1.67H746.8v1.67h-9.15v23.75H735.8Z"/><path class="cls-1" d="M261,693a6.8,6.8,0,0,1,0,12.51,11,11,0,0,1-4.55.87h-3.36v5h-5.46v-19.3h8.82A11,11,0,0,1,261,693Zm-2.34,8.35a2.59,2.59,0,0,0,.85-2.08,2.64,2.64,0,0,0-.85-2.1,3.81,3.81,0,0,0-2.54-.74h-3v5.65h3A3.81,3.81,0,0,0,258.62,701.35Z"/><path class="cls-1" d="M277.66,710.52a9.86,9.86,0,0,1,0-17.48,12.28,12.28,0,0,1,11,0,9.64,9.64,0,0,1,5.22,8.74,9.67,9.67,0,0,1-5.22,8.74,12.37,12.37,0,0,1-11,0Zm8.14-3.92a4.94,4.94,0,0,0,1.88-1.94,6.36,6.36,0,0,0,0-5.76A5,5,0,0,0,285.8,697a5.41,5.41,0,0,0-5.29,0,5,5,0,0,0-1.88,1.95,6.36,6.36,0,0,0,0,5.76,4.94,4.94,0,0,0,1.88,1.94,5.41,5.41,0,0,0,5.29,0Z"/><path class="cls-1" d="M331.88,692.13l-6.26,19.3h-5.85l-3.69-11.75-3.86,11.75h-5.85l-6.26-19.3h5.63l3.89,12.32,4.08-12.32h5l3.89,12.43,4.06-12.43Z"/><path class="cls-1" d="M354.84,707.21v4.22H339.35v-19.3h15.14v4.22h-9.74v3.25h8.58v4.08h-8.58v3.53Z"/><path class="cls-1" d="M371.83,706.3h-3v5.13h-5.46v-19.3h8.82a11,11,0,0,1,4.55.87,7,7,0,0,1,3.05,9.92,6.63,6.63,0,0,1-2.8,2.44l4.16,6.07h-5.84Zm2.59-9.13a3.81,3.81,0,0,0-2.54-.74h-3v5.65h3a3.81,3.81,0,0,0,2.54-.73,2.59,2.59,0,0,0,.85-2.08A2.64,2.64,0,0,0,374.42,697.17Z"/><path class="cls-1" d="M404.8,707.21v4.22H389.31v-19.3h15.14v4.22h-9.74v3.25h8.58v4.08h-8.58v3.53Z"/><path class="cls-1" d="M413.35,692.13h9.13a12.75,12.75,0,0,1,5.62,1.18,8.94,8.94,0,0,1,3.81,3.37,10.31,10.31,0,0,1,0,10.2,8.92,8.92,0,0,1-3.81,3.36,12.75,12.75,0,0,1-5.62,1.19h-9.13Zm8.91,14.94a5.62,5.62,0,0,0,4-1.4,5.79,5.79,0,0,0,0-7.78,5.58,5.58,0,0,0-4-1.41h-3.45v10.59Z"/><path class="cls-1" d="M472.6,703.17a4.73,4.73,0,0,1,.94,3,4.44,4.44,0,0,1-2,3.91,10.52,10.52,0,0,1-5.9,1.38H455.18v-19.3h9.87a9.67,9.67,0,0,1,5.62,1.36,4.28,4.28,0,0,1,1.93,3.68,4.58,4.58,0,0,1-.67,2.47,4.66,4.66,0,0,1-1.92,1.72A5.42,5.42,0,0,1,472.6,703.17Zm-12-7.1v3.72h3.75c1.84,0,2.76-.62,2.76-1.87s-.92-1.85-2.76-1.85Zm7.45,9.46c0-1.31-1-2-2.87-2h-4.58v3.92h4.58C467.07,707.49,468,706.83,468,705.53Z"/><path class="cls-1" d="M491.82,704.51v6.92h-5.46v-7L479,692.13h5.76l4.58,7.66,4.58-7.66h5.29Z"/><rect class="cls-4" x="247.59" y="727.09" width="251.62" height="319.86" rx="1.7"/><polygon class="cls-1" points="285.89 765.56 285.89 956.78 342.37 956.78 342.37 899.85 390.64 956.78 460.85 956.78 376.78 861.14 460.85 765.6 390.64 765.6 342.37 822.42 342.37 765.56 285.89 765.56"/><rect class="cls-4" x="273.59" y="973.55" width="199.1" height="43.32" rx="2.27"/><path class="cls-1" d="M295.61,1008.51c0-.09-3.5-9-3.5-9a.07.07,0,0,0-.08,0,.07.07,0,0,0-.06.07v8.93h-6.1v-26.6H292V990a.06.06,0,0,0,.06.06.07.07,0,0,0,.08,0s3.45-8,3.48-8.07h6.59c-.09.19-5.34,12.22-5.34,12.22s0,0,0,0v0l5.46,14.33Z"/><polygon class="cls-1" points="335.87 981.91 336.56 981.91 336.56 988 332.29 988 332.29 1008.51 326.02 1008.51 326.02 988 321.76 988 321.76 981.91 335.87 981.91"/><path class="cls-1" d="M350.86,981.91h.69V988h-6l2.43,6.3-3,7.9h6.42v6.34H335.89l5.81-14.23-5.17-12.37Z"/><path class="cls-1" d="M361.46,1002.59c-.74,0-3,0-3-7.36s2.26-7.4,3-7.4c2,0,3,2.49,3,7.4s-1,7.36-3,7.36m0-21c-5.7,0-9.24,5.23-9.24,13.64s3.45,13.6,9.24,13.6,9.28-5.2,9.28-13.25c0-8.76-3.47-14-9.28-14"/><path class="cls-1" d="M399.66,1002.59c-.74,0-3,0-3-7.36s2.27-7.4,3-7.4c2,0,3,2.49,3,7.4s-1,7.36-3,7.36m0-21c-5.7,0-9.24,5.23-9.24,13.64s3.45,13.6,9.24,13.6c5.64,0,9.28-5.2,9.28-13.25,0-8.76-3.47-14-9.28-14"/><path class="cls-1" d="M420.17,981.91h.52l7.35,26.6h-6.38c-.21-.85-3-11.85-3-11.94-.14-.57-.27-1.18-.41-1.87h-.13l-.38,1.76s-2.92,11.94-2.94,12h-6.52l7.31-26.6Z"/><path class="cls-1" d="M436.61,1002.59c-.75,0-3,0-3-7.36s2.26-7.4,3-7.4c2,0,3,2.49,3,7.4s-1,7.36-3,7.36m0-21c-5.71,0-9.25,5.23-9.25,13.64s3.46,13.6,9.25,13.6c5.63,0,9.28-5.2,9.28-13.25,0-8.76-3.47-14-9.28-14"/><path class="cls-1" d="M459.73,981.91h.69V988h-6l2.43,6.3-3,7.9h6.42v6.34h-15.5l5.81-14.23-5.16-12.37Z"/><path class="cls-1" d="M305.33,1002.2h.15l-.1-.12a12.78,12.78,0,0,1-2.8-8.05c0-6,3-12.44,9.62-12.44s9.63,6.45,9.63,12.44a12.94,12.94,0,0,1-2.89,8.05l-.1.12h2.4v6.31h-8.51v-7.7l.24-.12c2.36-.9,2.61-5,2.61-6.7,0-.63-.09-6.16-3.38-6.16s-3.38,5.53-3.38,6.16c0,2.08.34,5.71,2.65,6.71h0l.09.07v7.74h-8.4v-6.31Z"/><path class="cls-1" d="M382.44,1002.69a5.84,5.84,0,0,1-3.44.69h-.59v-6h.65a6.61,6.61,0,0,1,3.22.5h0a3.07,3.07,0,0,1,.16,4.77m-4-15.63H379a3.8,3.8,0,0,1,2.32.51h0a2.63,2.63,0,0,1,.93,2.18,2.6,2.6,0,0,1-1,2.19,3.71,3.71,0,0,1-2.23.51h-.62Zm6.43,7.34h0v-.17l0,0a6.07,6.07,0,0,0,2.85-5.51,6.33,6.33,0,0,0-7.06-6.75h-7.95v26.55h8.46a9.21,9.21,0,0,0,6.06-1.93,7.37,7.37,0,0,0,2.19-5.59c0-3.49-1.69-6-4.53-6.57"/></g></g></svg>